<?xml version="1.0" encoding="UTF-8" standalone="no"?>
<!-- Created with Inkscape (http://www.inkscape.org/) -->

<svg
   xmlns:dc="http://purl.org/dc/elements/1.1/"
   xmlns:cc="http://creativecommons.org/ns#"
   xmlns:rdf="http://www.w3.org/1999/02/22-rdf-syntax-ns#"
   xmlns:svg="http://www.w3.org/2000/svg"
   xmlns="http://www.w3.org/2000/svg"
   xmlns:sodipodi="http://sodipodi.sourceforge.net/DTD/sodipodi-0.dtd"
   xmlns:inkscape="http://www.inkscape.org/namespaces/inkscape"
   width="24"
   height="24"
   id="svg2"
   version="1.1"
   inkscape:version="0.48.0 r9654"
   sodipodi:docname="icons.svg">
  <defs
     id="defs4" />
  <sodipodi:namedview
     id="base"
     pagecolor="#ffffff"
     bordercolor="#666666"
     borderopacity="1.0"
     inkscape:pageopacity="0.0"
     inkscape:pageshadow="2"
     inkscape:zoom="10.693878"
     inkscape:cx="51.645778"
     inkscape:cy="-0.5"
     inkscape:document-units="px"
     inkscape:current-layer="layer1"
     showgrid="true"
     inkscape:window-width="1280"
     inkscape:window-height="747"
     inkscape:window-x="0"
     inkscape:window-y="24"
     inkscape:window-maximized="1">
    <inkscape:grid
       type="xygrid"
       id="grid2985"
       empspacing="5"
       visible="true"
       enabled="true"
       snapvisiblegridlinesonly="true" />
  </sodipodi:namedview>
  <metadata
     id="metadata7">
    <rdf:RDF>
      <cc:Work
         rdf:about="">
        <dc:format>image/svg+xml</dc:format>
        <dc:type
           rdf:resource="http://purl.org/dc/dcmitype/StillImage" />
        <dc:title></dc:title>
      </cc:Work>
    </rdf:RDF>
  </metadata>
  <g
     inkscape:label="Ebene 1"
     inkscape:groupmode="layer"
     id="layer1">
    <path
       style="fill:none;stroke:#000000;stroke-width:4px;stroke-linecap:butt;stroke-linejoin:miter;stroke-opacity:1"
       d="M 3,2 V 22 H 21 V 2 h -5 v 13 l -2,-2 -2,2 V 2 z"
       id="path2989"
       inkscape:connector-curvature="0" />
    <path
       style="fill:none;stroke:#000000;stroke-width:4px;stroke-linecap:butt;stroke-linejoin:miter;stroke-opacity:1"
       d="m 28,2 0,20 18,0 0,-20 z"
       id="path2989-4"
       inkscape:connector-curvature="0"
       sodipodi:nodetypes="ccccc" />
    <path
       style="fill:none;stroke:#000000;stroke-width:4;stroke-linecap:butt;stroke-linejoin:miter;stroke-opacity:1"
       d="M 31,7 43,7"
       id="path3028"
       inkscape:connector-curvature="0"
       sodipodi:nodetypes="cc" />
    <path
       style="fill:none;stroke:#000000;stroke-width:4;stroke-linecap:butt;stroke-linejoin:miter;stroke-opacity:1"
       d="m 31,12 12,0"
       id="path3028-3"
       inkscape:connector-curvature="0"
       sodipodi:nodetypes="cc" />
    <path
       style="fill:none;stroke:#000000;stroke-width:4;stroke-linecap:butt;stroke-linejoin:miter;stroke-opacity:1"
       d="m 31,17 12,0"
       id="path3028-0"
       inkscape:connector-curvature="0"
       sodipodi:nodetypes="cc" />
    <path
       style="fill:none;stroke:#000000;stroke-width:4px;stroke-linecap:butt;stroke-linejoin:miter;stroke-opacity:1"
       d="M -8,6.1354962 -8,2 l -14,0 0,20 14,0 0,-4.072519"
       id="path2989-3"
       inkscape:connector-curvature="0"
       sodipodi:nodetypes="cccccc" />
    <path
       style="fill:none;stroke:#000000;stroke-width:4;stroke-linecap:butt;stroke-linejoin:miter;stroke-opacity:1"
       d="m -19,12 12,0"
       id="path3075"
       inkscape:connector-curvature="0"
       sodipodi:nodetypes="cc" />
    <path
       style="fill:none;stroke:#000000;stroke-width:4;stroke-linecap:butt;stroke-linejoin:miter;stroke-opacity:1"
       d="m -10,7 5,5 -5,5"
       id="path3077"
       inkscape:connector-curvature="0"
       sodipodi:nodetypes="ccc" />
    <path
       style="fill:none;stroke:#000000;stroke-width:4px;stroke-linecap:butt;stroke-linejoin:miter;stroke-opacity:1"
       d="m 3,27 0,20 18,0 0,-20 z"
       id="path2989-4-5"
       inkscape:connector-curvature="0"
       sodipodi:nodetypes="ccccc" />
    <g
       style="font-size:21.60827065000000147px;font-style:normal;font-variant:normal;font-weight:bold;font-stretch:normal;text-align:start;line-height:125%;letter-spacing:0px;word-spacing:0px;writing-mode:lr-tb;text-anchor:start;fill:#000000;fill-opacity:1;stroke:#000000;font-family:DejaVu Sans;-inkscape-font-specification:DejaVu Sans Bold;stroke-opacity:1;stroke-width:0.75"
       id="text3097">
      <path
         d="m 13.480598,39.68234 -3.8088801,0 0,-0.516995 c -3.7e-6,-0.576777 0.1160562,-1.086737 0.3481801,-1.529883 0.232116,-0.450164 0.720974,-1.019913 1.466577,-1.709248 l 0.675258,-0.611953 c 0.400929,-0.365754 0.692837,-0.710417 0.875726,-1.033989 0.189909,-0.32355 0.284868,-0.647111 0.284875,-0.970684 -7e-6,-0.492364 -0.168822,-0.875713 -0.506444,-1.15005 -0.337636,-0.281344 -0.808909,-0.422023 -1.413822,-0.422036 -0.569754,1.3e-5 -1.185224,0.11959 -1.8464102,0.358731 -0.6611935,0.232133 -1.3505191,0.580312 -2.067979,1.04454 l 0,-3.312986 c 0.8511047,-0.295411 1.6283545,-0.513463 2.3317519,-0.654157 0.7033893,-0.140663 1.3821643,-0.211002 2.0363263,-0.211018 1.716274,1.6e-5 3.024586,0.351712 3.92494,1.055091 0.900334,0.696375 1.350506,1.716295 1.350517,3.059765 -1.1e-5,0.689337 -0.137173,1.308324 -0.411486,1.856961 -0.274334,0.541623 -0.742091,1.125439 -1.403271,1.751451 l -0.675259,0.601402 c -0.478316,0.436112 -0.791326,0.787809 -0.939031,1.055092 -0.147721,0.260262 -0.221577,0.548653 -0.221569,0.865175 l 0,0.474791 m -3.8088801,1.561535 3.8088801,0 0,3.756125 -3.8088801,0 0,-3.756125"
         style="stroke:#000000;stroke-opacity:1;stroke-width:0.75"
         id="path3154" />
    </g>
    <path
       style="fill:none;stroke:#000000;stroke-width:4px;stroke-linecap:butt;stroke-linejoin:miter;stroke-opacity:1"
       d="M -18,31.135496 -18,27 l 14,0 0,20 -14,0 0,-4.072519"
       id="path2989-3-1"
       inkscape:connector-curvature="0"
       sodipodi:nodetypes="cccccc" />
    <path
       style="fill:none;stroke:#000000;stroke-width:4;stroke-linecap:butt;stroke-linejoin:miter;stroke-opacity:1"
       d="m -24,37 12,0"
       id="path3075-9"
       inkscape:connector-curvature="0"
       sodipodi:nodetypes="cc" />
    <path
       style="fill:none;stroke:#000000;stroke-width:4;stroke-linecap:butt;stroke-linejoin:miter;stroke-opacity:1"
       d="m -15,32 5,5 -5,5"
       id="path3077-9"
       inkscape:connector-curvature="0"
       sodipodi:nodetypes="ccc" />
    <path
       style="fill:none;stroke:#000000;stroke-width:4px;stroke-linecap:butt;stroke-linejoin:miter;stroke-opacity:1"
       d="M 42.864504,33 47,33 l 0,14 -20,0 0,-14 4.072519,0"
       id="path2989-3-1-2"
       inkscape:connector-curvature="0"
       sodipodi:nodetypes="cccccc" />
    <path
       style="fill:none;stroke:#000000;stroke-width:4;stroke-linecap:butt;stroke-linejoin:miter;stroke-opacity:1"
       d="m 37,27 0,12"
       id="path3075-9-5"
       inkscape:connector-curvature="0"
       sodipodi:nodetypes="cc" />
    <path
       style="fill:none;stroke:#000000;stroke-width:4;stroke-linecap:butt;stroke-linejoin:miter;stroke-opacity:1"
       d="m 42,36 -5,5 -5,-5"
       id="path3077-9-3"
       inkscape:connector-curvature="0"
       sodipodi:nodetypes="ccc" />
    <rect
       style="opacity:0.25;fill:#800000;fill-opacity:1;stroke:none"
       id="rect3156"
       width="24"
       height="24"
       x="50"
       y="0" />
    <path
       style="fill:none;stroke:#000000;stroke-width:4;stroke-linecap:butt;stroke-linejoin:miter;stroke-opacity:1"
       d="M 55,4 70,20"
       id="path3158"
       inkscape:connector-curvature="0"
       sodipodi:nodetypes="cc" />
    <path
       sodipodi:nodetypes="cc"
       inkscape:connector-curvature="0"
       id="path3184"
       d="M 70,4 55,20"
       style="fill:none;stroke:#000000;stroke-width:4;stroke-linecap:butt;stroke-linejoin:miter;stroke-opacity:1" />
  </g>
</svg>
