<svg xmlns="http://www.w3.org/2000/svg" version="1.1"
   width="400" height="200" viewBox="0 0 100 50">
  <g opacity="0">
    <rect fill="red" fill-opacity=".3" width="24" height="24" x="0"  y="0" />
    <rect fill="red" fill-opacity=".3" width="24" height="24" x="25" y="0" />
    <rect fill="red" fill-opacity=".3" width="24" height="24" x="50" y="0" />
    <rect fill="red" fill-opacity=".3" width="24" height="24" x="75" y="0" />
    <rect fill="red" fill-opacity=".3" width="24" height="24" x="0"  y="25" />
    <rect fill="red" fill-opacity=".3" width="24" height="24" x="25" y="25" />
    <rect fill="red" fill-opacity=".3" width="24" height="24" x="50" y="25" />
    <rect fill="red" fill-opacity=".3" width="24" height="24" x="75" y="25" />
  </g>
  <g fill="none" stroke="black" stroke-width="4">
    <path id="new" d="M 3,2 V 22 H 21 V 2 H 16 V 15 L 14,13 12,15 V 2 z" transform="translate(0,0)" />
    <path id="list" d="M 3,2 V 22 H 21 V 2 z M 6,7 H 18 M 6,12 H 18 M 6,17 H 18" transform="translate(25,0)" />
    <path id="logout" d="M 17,6 V 2 H 3 V 22 H 17 V 18 M 6,12 H 18 M 15,7 20,12 15,17" transform="translate(75,0)" />
    <g id="help" transform="translate(0,25)">
      <path d="M 3,2 3,22 21,22 21,2 z" />
      <path d="m 9,14 0,1 5,0 0,-1
               c 0,-0.75 0.75,-1.25 1.25,-1.75
               C 16.25,11.5 17.5,10.25 17.5,8 17.5,5.25 15.5,3.5 12,3.5 11.5,3.5 8.75,4 7,5
               L 7,9
               C 8.5,8 9,7.75 9.5,7.5 10.75,7 13,6.75 13,8.25 13,9.25 12,10 10.75,11 9,12.5 9,14 9,14 z
               M 9,16 H 14 V 21 H 9 V 16 Z"
               fill="black" stroke-width="0" />
    </g>
    <path id="login" d="M 7,6 V 2 H 21 V 22 H 7 V 18 M 1,12 H 13 M 10,7 15,12 10,17" transform="translate(75,25)" />
    <path id="save" d="M 18,8 H 22 V 22 H 2 V 8 H 6 M 12,2 V 14 M 17,11 12,16 7,11" transform="translate(25,25)" />
    <path id="cancel" d="M 5,4 20,20 M 20,4 5,20" transform="translate(50,0)" />
    <path id="check" d="M 5,10 10,17 19,5" transform="translate(50,25)" />
  </g>
</svg>
